<svg width="19" height="18" viewBox="0 0 19 18" fill="none" xmlns="http://www.w3.org/2000/svg">
<path d="M17.5936 0H1.40273C0.627148 0 0 0.580078 0 1.29727V16.6992C0 17.4164 0.627148 18 1.40273 18H17.5936C18.3691 18 19 17.4164 19 16.7027V1.29727C19 0.580078 18.3691 0 17.5936 0ZM5.63691 15.3387H2.8166V6.74648H5.63691V15.3387ZM4.22676 5.57578C3.32129 5.57578 2.59023 4.8832 2.59023 4.02891C2.59023 3.17461 3.32129 2.48203 4.22676 2.48203C5.12852 2.48203 5.85957 3.17461 5.85957 4.02891C5.85957 4.87969 5.12852 5.57578 4.22676 5.57578ZM16.1908 15.3387H13.3742V11.1621C13.3742 10.1672 13.3557 8.88398 11.9084 8.88398C10.4426 8.88398 10.2199 9.97031 10.2199 11.0918V15.3387H7.40703V6.74648H10.1086V7.9207H10.1457C10.5205 7.2457 11.4408 6.53203 12.8102 6.53203C15.6639 6.53203 16.1908 8.31094 16.1908 10.6242V15.3387Z" fill="white"/>
</svg>
