<svg width="63" height="62" viewBox="0 0 63 62" fill="none" xmlns="http://www.w3.org/2000/svg">
<path d="M0 58.7165V56.6202C0 55.1321 0.872933 54.2906 2.43351 54.2906C4.03879 54.2906 4.80172 54.9734 4.80172 56.4052V56.5829C4.80172 56.7422 4.7176 56.8363 4.56643 56.8363H3.91938C3.77055 56.8363 3.68408 56.7422 3.68408 56.5924V56.4052C3.68408 55.5626 3.32291 55.2167 2.43115 55.2167C1.59469 55.2167 1.15822 55.6567 1.15822 56.5195V58.8225C1.15822 59.6835 1.59469 60.1252 2.43115 60.1252C3.32291 60.1252 3.68408 59.7794 3.68408 58.9409V58.688C3.68408 58.5382 3.7682 58.4441 3.91938 58.4441H4.56643C4.71525 58.4441 4.80172 58.5382 4.80172 58.6975V58.9409C4.80172 60.3722 4.03702 61.0555 2.43351 61.0555C0.872933 61.0467 0 60.204 0 58.7165Z" fill="#00E04C"/>
<path d="M6.12416 60.6154V54.7191C6.12167 54.6754 6.12841 54.6316 6.14396 54.5907C6.15951 54.5498 6.1835 54.5126 6.21436 54.4817C6.24521 54.4509 6.28223 54.4269 6.32295 54.4115C6.36368 54.3961 6.4072 54.3895 6.45063 54.3922H6.9424C6.98578 54.3896 7.02923 54.3962 7.06989 54.4117C7.11055 54.4271 7.14749 54.4511 7.17828 54.482C7.20907 54.5129 7.23301 54.55 7.24852 54.5908C7.26403 54.6317 7.27076 54.6754 7.26827 54.7191V57.1151H9.88472V54.7191C9.88232 54.6754 9.88913 54.6317 9.90471 54.5908C9.92029 54.5499 9.94428 54.5128 9.97512 54.482C10.006 54.4511 10.0429 54.4271 10.0836 54.4117C10.1243 54.3962 10.1678 54.3896 10.2112 54.3922H10.703C10.7463 54.3897 10.7897 54.3964 10.8303 54.4119C10.871 54.4274 10.9079 54.4513 10.9386 54.4822C10.9694 54.5131 10.9933 54.5501 11.0089 54.591C11.0244 54.6318 11.0312 54.6755 11.0288 54.7191V60.6154C11.0312 60.6591 11.0244 60.7028 11.0089 60.7436C10.9933 60.7845 10.9694 60.8216 10.9386 60.8525C10.9079 60.8834 10.871 60.9074 10.8304 60.923C10.7898 60.9386 10.7463 60.9453 10.703 60.9428H10.2112C10.1678 60.9454 10.1243 60.9387 10.0836 60.9232C10.0429 60.9076 10.0059 60.8836 9.9751 60.8527C9.94427 60.8218 9.92029 60.7847 9.90471 60.7438C9.88914 60.7029 9.88232 60.6591 9.88472 60.6154V58.0797H7.26827V60.6154C7.27076 60.6591 7.26402 60.7028 7.24852 60.7437C7.23301 60.7846 7.20908 60.8218 7.1783 60.8527C7.14752 60.8836 7.11059 60.9076 7.06993 60.9232C7.02927 60.9387 6.98581 60.9454 6.9424 60.9428H6.45063C6.40717 60.9455 6.36364 60.9389 6.32292 60.9234C6.28219 60.9079 6.24518 60.8839 6.21433 60.8529C6.18349 60.822 6.15951 60.7848 6.14397 60.7439C6.12842 60.7029 6.12167 60.6591 6.12416 60.6154Z" fill="#00E04C"/>
<path d="M12.6381 60.6154V54.7191C12.6353 54.6756 12.6418 54.6319 12.6571 54.5911C12.6723 54.5503 12.6961 54.5132 12.7267 54.4823C12.7572 54.4514 12.794 54.4274 12.8345 54.4118C12.875 54.3963 12.9183 54.3896 12.9616 54.3922H13.4557C13.499 54.3896 13.5423 54.3963 13.5828 54.4118C13.6233 54.4274 13.6601 54.4514 13.6907 54.4823C13.7212 54.5132 13.745 54.5503 13.7602 54.5911C13.7755 54.6319 13.782 54.6756 13.7792 54.7191V60.6154C13.782 60.6589 13.7755 60.7026 13.7602 60.7434C13.745 60.7843 13.7213 60.8214 13.6907 60.8524C13.6601 60.8833 13.6233 60.9074 13.5828 60.923C13.5423 60.9386 13.499 60.9453 13.4557 60.9428H12.9616C12.9183 60.9453 12.875 60.9386 12.8345 60.923C12.794 60.9074 12.7572 60.8833 12.7266 60.8524C12.6961 60.8214 12.6723 60.7843 12.6571 60.7434C12.6418 60.7026 12.6353 60.6589 12.6381 60.6154Z" fill="#00E04C"/>
<path d="M15.3992 60.6154V54.9074C15.3992 54.5894 15.594 54.3922 15.9287 54.3922H16.291C16.6069 54.3922 16.7569 54.5142 16.9222 54.8227L19.2445 59.1184V54.7191C19.242 54.6754 19.2488 54.6317 19.2643 54.5908C19.2798 54.55 19.3037 54.5129 19.3345 54.482C19.3653 54.4511 19.4022 54.4271 19.4429 54.4117C19.4836 54.3962 19.527 54.3896 19.5704 54.3922H19.978C20.0214 54.3896 20.0649 54.3962 20.1055 54.4117C20.1462 54.4271 20.1831 54.4511 20.2139 54.482C20.2447 54.5129 20.2687 54.55 20.2842 54.5908C20.2997 54.6317 20.3064 54.6754 20.3039 54.7191V60.4276C20.3039 60.7456 20.1069 60.9417 19.7745 60.9417H19.4516C19.1357 60.9417 18.9857 60.8197 18.8204 60.5111L16.4616 56.1966V60.6142C16.464 60.6579 16.4572 60.7017 16.4416 60.7426C16.426 60.7835 16.402 60.8206 16.3712 60.8515C16.3404 60.8824 16.3034 60.9065 16.2627 60.922C16.2221 60.9375 16.1786 60.9442 16.1351 60.9417H15.7275C15.684 60.9446 15.6404 60.9381 15.5995 60.9228C15.5587 60.9075 15.5215 60.8837 15.4905 60.8528C15.4594 60.822 15.4353 60.7849 15.4195 60.7439C15.4038 60.703 15.3969 60.6592 15.3992 60.6154Z" fill="#00E04C"/>
<path d="M26.7698 56.6194V58.7157C26.7698 60.1962 25.8498 61.0459 24.2351 61.0459C22.6204 61.0459 21.6998 60.1944 21.6998 58.7157V56.6194C21.6998 55.139 22.6181 54.2898 24.2351 54.2898C25.8521 54.2898 26.7698 55.1407 26.7698 56.6194ZM24.2351 60.1186C25.1263 60.1186 25.608 59.6508 25.608 58.8004V56.5359C25.608 55.6838 25.1451 55.216 24.2351 55.216C23.3251 55.216 22.8598 55.6838 22.8598 56.5359V58.8004C22.8598 59.6508 23.3328 60.1186 24.2351 60.1186Z" fill="#00E04C"/>
<path d="M28.2139 60.6154V54.7191C28.2111 54.6756 28.2176 54.6319 28.2329 54.5911C28.2481 54.5503 28.2719 54.5132 28.3025 54.4823C28.333 54.4514 28.3698 54.4274 28.4103 54.4118C28.4508 54.3963 28.4941 54.3896 28.5374 54.3922H29.0292C29.0724 54.3896 29.1157 54.3963 29.1562 54.4118C29.1967 54.4274 29.2335 54.4514 29.2641 54.4823C29.2947 54.5132 29.3184 54.5503 29.3337 54.5911C29.3489 54.6319 29.3554 54.6756 29.3527 54.7191V60.6154C29.3554 60.6589 29.3489 60.7026 29.3337 60.7434C29.3184 60.7843 29.2947 60.8214 29.2641 60.8524C29.2335 60.8833 29.1968 60.9074 29.1563 60.923C29.1158 60.9386 29.0724 60.9453 29.0292 60.9428H28.535C28.4919 60.945 28.4489 60.938 28.4087 60.9222C28.3684 60.9065 28.332 60.8824 28.3017 60.8515C28.2713 60.8205 28.2478 60.7835 28.2327 60.7428C28.2176 60.7022 28.2112 60.6587 28.2139 60.6154Z" fill="#00E04C"/>
<path d="M30.6227 59.2682V59.0521C30.6227 58.8928 30.7068 58.8004 30.8539 58.8004H31.4956C31.6427 58.8004 31.7268 58.8928 31.7268 59.0426V59.2493C31.7268 59.8947 32.0427 60.1476 32.9338 60.1476C33.8438 60.1476 34.1597 59.9042 34.1597 59.2001V59.013C34.1597 58.5546 33.9203 58.4208 33.4362 58.3201L32.1821 58.059C31.2538 57.8618 30.6697 57.5728 30.6697 56.3938V56.2055C30.6697 54.943 31.4486 54.288 32.9527 54.288C34.5409 54.288 35.2273 54.821 35.2273 56.0557V56.244C35.2273 56.4027 35.1456 56.4956 34.9956 56.4956H34.3644C34.3321 56.4982 34.2997 56.4937 34.2692 56.4825C34.2388 56.4712 34.2112 56.4535 34.1882 56.4305C34.1653 56.4075 34.1475 56.3798 34.1362 56.3492C34.1249 56.3186 34.1203 56.286 34.1226 56.2535V56.0651C34.1226 55.4386 33.8174 55.1864 32.9632 55.1864C32.0897 55.1864 31.8009 55.4197 31.8009 56.122V56.2996C31.8009 56.758 32.0427 56.8918 32.5162 56.9925L33.7703 57.2536C34.6985 57.4508 35.2926 57.7505 35.2926 58.9188V59.1166C35.2926 60.3791 34.4856 61.0441 32.9444 61.0441C31.3191 61.0459 30.6227 60.5124 30.6227 59.2682Z" fill="#00E04C"/>
<path d="M36.505 60.6154V54.9074C36.505 54.5894 36.6997 54.3922 37.0344 54.3922H37.3973C37.7503 54.3922 37.8626 54.4586 38.0391 54.8228L39.3303 57.4526L40.6185 54.8228C40.7949 54.4586 40.9079 54.3922 41.2602 54.3922H41.5861C41.9202 54.3922 42.1155 54.5894 42.1155 54.9074V60.6154C42.1182 60.6592 42.1116 60.703 42.0962 60.744C42.0807 60.785 42.0568 60.8222 42.026 60.8532C41.9952 60.8841 41.9581 60.9081 41.9174 60.9236C41.8767 60.9391 41.8331 60.9456 41.7896 60.9429H41.3926C41.3491 60.9457 41.3055 60.9392 41.2647 60.9238C41.2238 60.9084 41.1867 60.8844 41.1559 60.8534C41.125 60.8224 41.101 60.7852 41.0855 60.7441C41.0701 60.7031 41.0634 60.6592 41.0661 60.6154V56.1516L39.7673 58.7524C39.6356 59.0148 39.5438 59.1184 39.302 59.1184C39.1073 59.1184 38.9861 59.0148 38.8573 58.7524L37.5556 56.1516V60.6154C37.5583 60.659 37.5518 60.7026 37.5366 60.7435C37.5213 60.7843 37.4976 60.8215 37.467 60.8524C37.4364 60.8834 37.3997 60.9074 37.3592 60.923C37.3187 60.9386 37.2753 60.9454 37.232 60.9429H36.8326C36.7891 60.9456 36.7455 60.939 36.7047 60.9236C36.6638 60.9081 36.6267 60.8842 36.5958 60.8532C36.5648 60.8223 36.5407 60.7851 36.5251 60.7441C36.5094 60.7031 36.5026 60.6593 36.505 60.6154Z" fill="#FCFAFB"/>
<path d="M43.676 60.4277V54.9063C43.676 54.5883 43.8707 54.3911 44.1866 54.3911H47.5501C47.7524 54.3911 47.8654 54.5036 47.8654 54.7091V55.0271C47.8654 55.2337 47.7524 55.3463 47.5501 55.3463H44.8201V57.1139H46.9554C47.2419 57.1139 47.4471 57.2833 47.4471 57.5734V57.6196C47.4471 57.9098 47.2419 58.0785 46.9554 58.0785H44.8201V59.9877H47.5501C47.7524 59.9877 47.8654 60.099 47.8654 60.3057V60.6237C47.8654 60.8292 47.7524 60.9417 47.5501 60.9417H44.1866C43.8707 60.9429 43.676 60.7469 43.676 60.4277Z" fill="#FCFAFB"/>
<path d="M48.996 60.4277V54.9063C48.996 54.5883 49.1907 54.3911 49.5066 54.3911H51.0318C52.9142 54.3911 53.89 55.2705 53.89 56.9931V58.3409C53.89 60.0617 52.9142 60.9417 51.0318 60.9417H49.5066C49.1907 60.9429 48.996 60.7469 48.996 60.4277ZM51.0548 59.9966C52.1512 59.9966 52.7271 59.4636 52.7271 58.3871V56.9457C52.7271 55.8697 52.1512 55.3368 51.0548 55.3368H50.1348V59.9966H51.0548Z" fill="#FCFAFB"/>
<path d="M55.3336 60.6154V54.7191C55.3309 54.6756 55.3373 54.6319 55.3526 54.5911C55.3679 54.5503 55.3916 54.5132 55.4222 54.4823C55.4528 54.4514 55.4896 54.4274 55.5301 54.4118C55.5706 54.3963 55.6139 54.3896 55.6571 54.3922H56.1518C56.195 54.3897 56.2383 54.3965 56.2787 54.412C56.3192 54.4276 56.3559 54.4516 56.3864 54.4825C56.4169 54.5134 56.4406 54.5505 56.4558 54.5913C56.471 54.6321 56.4775 54.6756 56.4748 54.7191V60.6154C56.4775 60.6589 56.471 60.7025 56.4558 60.7433C56.4406 60.7841 56.4169 60.8212 56.3864 60.8522C56.3559 60.8831 56.3192 60.9072 56.2788 60.9228C56.2383 60.9384 56.1951 60.9453 56.1518 60.9428H55.6571C55.6139 60.9453 55.5705 60.9386 55.53 60.923C55.4895 60.9074 55.4528 60.8833 55.4222 60.8524C55.3916 60.8214 55.3679 60.7843 55.3526 60.7434C55.3374 60.7026 55.3309 60.6589 55.3336 60.6154Z" fill="#FCFAFB"/>
<path d="M57.5377 60.6432C57.5428 60.5535 57.5613 60.4651 57.5924 60.3809L59.3018 54.9074C59.4336 54.4929 59.5912 54.3644 59.9489 54.3644H60.5824C60.9424 54.3644 61.1006 54.4953 61.2294 54.9074L62.9353 60.3809C62.969 60.4645 62.9888 60.5531 62.9941 60.6432C62.9941 60.8208 62.8812 60.9428 62.6494 60.9428H62.25C62.0077 60.9428 61.9159 60.8582 61.8318 60.5875L61.3765 59.0716H59.1124L58.6577 60.5875C58.5736 60.8582 58.4812 60.9428 58.2395 60.9428H57.8765C57.6507 60.9428 57.5377 60.8208 57.5377 60.6432ZM61.0953 58.0969L60.2489 55.2616L59.4048 58.0969H61.0953Z" fill="#FCFAFB"/>
<path d="M62.9994 41.641V36.797V31.6729L59.1077 35.5908V43.848H50.9054L47.0214 47.7581H62.9994V41.641Z" fill="#00E04C"/>
<path d="M63 0H59.1089H58.1653H52.6607L48.7754 3.9113L41.7731 10.9605L37.882 14.8778L30.885 21.9216L26.9945 25.8383L19.9975 32.8822L16.1069 36.7994L9.10403 43.8486H3.89055V39.1308L6.207 36.7994L10.0976 32.8822L17.0945 25.8383L20.9851 21.9216L27.9821 14.8778L31.8732 10.9605L38.8755 3.9113L42.7608 0H37.262H27.3621H21.8633L17.9781 3.9113L10.9758 10.9605L7.08464 14.8778L3.89055 18.0933L0.0876462 21.9216H0V22.0099V25.8383V27.5455L1.69587 25.8383L3.89055 23.6289L5.58642 21.9216L12.5834 14.8778L16.4746 10.9605L23.4768 3.9113H33.3767L26.3745 10.9605L22.4833 14.8778L15.4863 21.9216L11.5958 25.8383L4.59878 32.8822L3.89055 33.5951L0.708229 36.7994L0 37.5118V43.0474V43.8486V47.7599H3.89055H5.21877H10.7228L14.6087 43.8486L21.611 36.7994L25.5015 32.8822L32.4985 25.8383L36.3897 21.9216L43.3867 14.8778L47.2772 10.9605L54.2795 3.9113H59.1089V9.01583L57.1771 10.9605L53.2866 14.8778L46.2896 21.9216L42.3984 25.8383L35.402 32.8822L31.5109 36.7994L24.5086 43.8486L20.6233 47.7599H26.1221H36.022H41.5208L45.406 43.8486L52.4083 36.7994L56.2995 32.8822L59.1089 30.054L63 26.1367V25.8383V21.9216V20.6011L61.6882 21.9216L59.1089 24.5183L57.7977 25.8383L50.8007 32.8822L46.9096 36.7994L39.9073 43.8486H30.0074L37.0097 36.7994L40.9008 32.8822L47.8972 25.8383L51.7883 21.9216L58.7853 14.8778L59.1089 14.5521L62.6759 10.9605L63 10.6348V5.0992V3.9113V0Z" fill="#FCFAFB"/>
</svg>
