<svg width="43" height="42" viewBox="0 0 43 42" fill="none" xmlns="http://www.w3.org/2000/svg">
<path d="M0 40.077V38.6462C0 37.6305 0.595811 37.0562 1.66096 37.0562C2.75663 37.0562 3.27736 37.5222 3.27736 38.4995V38.6207C3.27736 38.7295 3.21995 38.7937 3.11677 38.7937H2.67513C2.57355 38.7937 2.51453 38.7295 2.51453 38.6272V38.4995C2.51453 37.9243 2.26802 37.6883 1.65936 37.6883C1.08844 37.6883 0.790534 37.9886 0.790534 38.5775V40.1493C0.790534 40.737 1.08844 41.0385 1.65936 41.0385C2.26802 41.0385 2.51453 40.8025 2.51453 40.2302V40.0576C2.51453 39.9553 2.57195 39.8911 2.67513 39.8911H3.11677C3.21835 39.8911 3.27736 39.9553 3.27736 40.0641V40.2302C3.27736 41.2071 2.75543 41.6735 1.66096 41.6735C0.595811 41.6674 0 41.0923 0 40.077Z" fill="#00E04C"/>
<path d="M4.18003 41.3725V37.348C4.17833 37.3182 4.18293 37.2883 4.19355 37.2604C4.20416 37.2325 4.22053 37.2071 4.24159 37.186C4.26265 37.1649 4.28792 37.1486 4.31572 37.1381C4.34352 37.1275 4.37322 37.1231 4.40286 37.1249H4.73851C4.76812 37.1231 4.79778 37.1276 4.82553 37.1382C4.85328 37.1487 4.87849 37.1651 4.89951 37.1862C4.92052 37.2073 4.93686 37.2326 4.94745 37.2605C4.95804 37.2884 4.96263 37.3182 4.96093 37.348V38.9834H6.74676V37.348C6.74512 37.3182 6.74977 37.2884 6.76041 37.2605C6.77104 37.2326 6.78742 37.2072 6.80846 37.1862C6.82951 37.1651 6.85475 37.1487 6.88252 37.1382C6.91029 37.1276 6.93996 37.1231 6.96959 37.1249H7.30524C7.33483 37.1232 7.36446 37.1277 7.39218 37.1383C7.4199 37.1489 7.44509 37.1653 7.46609 37.1863C7.48709 37.2074 7.50344 37.2327 7.51405 37.2606C7.52466 37.2884 7.5293 37.3182 7.52766 37.348V41.3725C7.52929 41.4023 7.52465 41.4321 7.51404 41.46C7.50344 41.4879 7.4871 41.5132 7.46611 41.5343C7.44512 41.5554 7.41993 41.5718 7.39221 41.5824C7.36449 41.593 7.33485 41.5977 7.30524 41.596H6.96959C6.93994 41.5977 6.91026 41.5931 6.88249 41.5825C6.85472 41.5719 6.82949 41.5556 6.80845 41.5345C6.78741 41.5134 6.77104 41.488 6.76041 41.4601C6.74978 41.4322 6.74513 41.4023 6.74676 41.3725V39.6418H4.96093V41.3725C4.96263 41.4023 4.95803 41.4321 4.94745 41.4601C4.93686 41.488 4.92053 41.5133 4.89952 41.5344C4.87852 41.5556 4.85331 41.5719 4.82556 41.5826C4.7978 41.5932 4.76814 41.5977 4.73851 41.596H4.40286C4.3732 41.5978 4.34349 41.5933 4.31569 41.5827C4.28789 41.5721 4.26263 41.5557 4.24158 41.5346C4.22053 41.5135 4.20416 41.4881 4.19355 41.4602C4.18294 41.4322 4.17833 41.4023 4.18003 41.3725V41.3725Z" fill="#00E04C"/>
<path d="M8.62591 41.3724V37.348C8.62403 37.3183 8.62846 37.2885 8.63888 37.2606C8.6493 37.2328 8.66549 37.2074 8.68637 37.1863C8.70725 37.1652 8.73234 37.1489 8.75999 37.1383C8.78764 37.1277 8.8172 37.1231 8.84673 37.1249H9.18398C9.21351 37.1231 9.24308 37.1277 9.27072 37.1383C9.29837 37.1489 9.32346 37.1652 9.34434 37.1863C9.36522 37.2074 9.38141 37.2328 9.39183 37.2606C9.40225 37.2885 9.40668 37.3183 9.4048 37.348V41.3724C9.40667 41.4022 9.40225 41.4319 9.39183 41.4598C9.38141 41.4877 9.36523 41.5131 9.34435 41.5342C9.32348 41.5553 9.2984 41.5717 9.27075 41.5824C9.2431 41.593 9.21353 41.5976 9.18398 41.5959H8.84673C8.81718 41.5976 8.78761 41.593 8.75996 41.5824C8.73231 41.5717 8.70723 41.5553 8.68636 41.5342C8.66548 41.5131 8.64931 41.4877 8.63889 41.4598C8.62846 41.4319 8.62404 41.4022 8.62591 41.3724V41.3724Z" fill="#00E04C"/>
<path d="M10.5106 41.3724V37.4765C10.5106 37.2595 10.6435 37.1249 10.8719 37.1249H11.1192C11.3348 37.1249 11.4372 37.2082 11.55 37.4187L13.1351 40.3507V37.348C13.1334 37.3182 13.138 37.2884 13.1486 37.2605C13.1592 37.2326 13.1755 37.2072 13.1965 37.1862C13.2175 37.1651 13.2428 37.1487 13.2705 37.1382C13.2983 37.1276 13.3279 37.1231 13.3575 37.1249H13.6358C13.6654 37.1231 13.695 37.1276 13.7228 37.1382C13.7505 37.1487 13.7758 37.1651 13.7968 37.1862C13.8178 37.2072 13.8341 37.2326 13.8447 37.2605C13.8553 37.2884 13.8599 37.3182 13.8582 37.348V41.2443C13.8582 41.4614 13.7237 41.5951 13.4968 41.5951H13.2764C13.0608 41.5951 12.9584 41.5119 12.8456 41.3013L11.2357 38.3564V41.3716C11.2373 41.4015 11.2326 41.4313 11.222 41.4593C11.2114 41.4872 11.195 41.5125 11.174 41.5336C11.1529 41.5547 11.1277 41.5711 11.0999 41.5817C11.0722 41.5923 11.0425 41.5969 11.0128 41.5951H10.7346C10.7049 41.5971 10.6751 41.5927 10.6472 41.5823C10.6194 41.5718 10.594 41.5556 10.5728 41.5345C10.5516 41.5135 10.5351 41.4881 10.5244 41.4602C10.5137 41.4323 10.509 41.4023 10.5106 41.3724V41.3724Z" fill="#00E04C"/>
<path d="M18.2715 38.645V40.0758C18.2715 41.0863 17.6435 41.6663 16.5415 41.6663C15.4394 41.6663 14.811 41.085 14.811 40.0758V38.645C14.811 37.6345 15.4378 37.0549 16.5415 37.0549C17.6452 37.0549 18.2715 37.6357 18.2715 38.645ZM16.5415 41.0333C17.1497 41.0333 17.4785 40.714 17.4785 40.1336V38.588C17.4785 38.0064 17.1626 37.6871 16.5415 37.6871C15.9204 37.6871 15.6028 38.0064 15.6028 38.588V40.1336C15.6028 40.714 15.9256 41.0333 16.5415 41.0333Z" fill="#00E04C"/>
<path d="M19.257 41.3724V37.348C19.2551 37.3183 19.2596 37.2885 19.27 37.2606C19.2804 37.2328 19.2966 37.2074 19.3175 37.1863C19.3384 37.1652 19.3634 37.1489 19.3911 37.1383C19.4187 37.1277 19.4483 37.1231 19.4778 37.1249H19.8135C19.843 37.1231 19.8726 37.1277 19.9002 37.1383C19.9279 37.1489 19.953 37.1652 19.9738 37.1863C19.9947 37.2074 20.0109 37.2328 20.0213 37.2606C20.0317 37.2885 20.0362 37.3183 20.0343 37.348V41.3724C20.0362 41.4022 20.0317 41.4319 20.0213 41.4598C20.0109 41.4877 19.9947 41.5131 19.9738 41.5342C19.953 41.5553 19.9279 41.5717 19.9002 41.5824C19.8726 41.593 19.843 41.5976 19.8135 41.5959H19.4762C19.4468 41.5974 19.4174 41.5926 19.39 41.5819C19.3625 41.5711 19.3376 41.5547 19.3169 41.5336C19.2962 41.5125 19.2802 41.4872 19.2699 41.4594C19.2595 41.4317 19.2552 41.402 19.257 41.3724V41.3724Z" fill="#00E04C"/>
<path d="M20.9011 40.4529V40.3054C20.9011 40.1966 20.9585 40.1336 21.0589 40.1336H21.4969C21.5973 40.1336 21.6547 40.1966 21.6547 40.2989V40.4399C21.6547 40.8805 21.8703 41.0531 22.4786 41.0531C23.0997 41.0531 23.3153 40.887 23.3153 40.4064V40.2787C23.3153 39.9658 23.1519 39.8745 22.8215 39.8058L21.9655 39.6275C21.3319 39.493 20.9332 39.2957 20.9332 38.491V38.3625C20.9332 37.5007 21.4648 37.0537 22.4914 37.0537C23.5754 37.0537 24.044 37.4175 24.044 38.2602V38.3887C24.044 38.497 23.9882 38.5605 23.8858 38.5605H23.455C23.433 38.5623 23.4108 38.5592 23.39 38.5515C23.3693 38.5438 23.3504 38.5317 23.3348 38.516C23.3191 38.5003 23.307 38.4814 23.2992 38.4605C23.2915 38.4397 23.2884 38.4174 23.29 38.3952V38.2667C23.29 37.839 23.0816 37.6669 22.4987 37.6669C21.9024 37.6669 21.7053 37.8261 21.7053 38.3055V38.4267C21.7053 38.7396 21.8703 38.8309 22.1935 38.8996L23.0495 39.0779C23.683 39.2124 24.0886 39.417 24.0886 40.2144V40.3494C24.0886 41.2111 23.5377 41.665 22.4858 41.665C21.3765 41.6662 20.9011 41.3021 20.9011 40.4529Z" fill="#00E04C"/>
<path d="M24.9161 41.3723V37.4764C24.9161 37.2594 25.049 37.1248 25.2774 37.1248H25.5252C25.766 37.1248 25.8427 37.17 25.9632 37.4186L26.8445 39.2136L27.7237 37.4186C27.8442 37.17 27.9212 37.1248 28.1617 37.1248H28.3842C28.6122 37.1248 28.7455 37.2594 28.7455 37.4764V41.3723C28.7473 41.4022 28.7428 41.4321 28.7323 41.4601C28.7217 41.488 28.7054 41.5134 28.6844 41.5346C28.6633 41.5557 28.6381 41.5721 28.6103 41.5827C28.5825 41.5932 28.5527 41.5977 28.5231 41.5958H28.2521C28.2224 41.5978 28.1926 41.5933 28.1648 41.5828C28.1369 41.5723 28.1116 41.5559 28.0905 41.5347C28.0694 41.5136 28.0531 41.4882 28.0425 41.4602C28.0319 41.4322 28.0274 41.4022 28.0292 41.3723V38.3256L27.1428 40.1008C27.0528 40.2798 26.9902 40.3505 26.8252 40.3505C26.6923 40.3505 26.6096 40.2798 26.5217 40.1008L25.6332 38.3256V41.3723C25.635 41.402 25.6306 41.4318 25.6202 41.4597C25.6098 41.4876 25.5936 41.513 25.5727 41.5341C25.5518 41.5552 25.5267 41.5716 25.4991 41.5823C25.4715 41.5929 25.4419 41.5975 25.4123 41.5958H25.1397C25.11 41.5977 25.0802 41.5932 25.0524 41.5827C25.0245 41.5721 24.9992 41.5557 24.978 41.5346C24.9569 41.5135 24.9405 41.4881 24.9298 41.4602C24.9191 41.4322 24.9144 41.4022 24.9161 41.3723V41.3723Z" fill="#191919"/>
<path d="M29.8105 41.2443V37.4757C29.8105 37.2586 29.9434 37.124 30.159 37.124H32.4547C32.5929 37.124 32.6699 37.2008 32.6699 37.3411V37.5581C32.6699 37.6992 32.5929 37.776 32.4547 37.776H30.5914V38.9825H32.0488C32.2444 38.9825 32.3845 39.098 32.3845 39.2961V39.3276C32.3845 39.5257 32.2444 39.6409 32.0488 39.6409H30.5914V40.9439H32.4547C32.5929 40.9439 32.6699 41.0199 32.6699 41.161V41.378C32.6699 41.5183 32.5929 41.5951 32.4547 41.5951H30.159C29.9434 41.5959 29.8105 41.4621 29.8105 41.2443Z" fill="#191919"/>
<path d="M33.4417 41.2443V37.4757C33.4417 37.2586 33.5745 37.124 33.7901 37.124H34.8312C36.116 37.124 36.7821 37.7242 36.7821 38.9V39.8199C36.7821 40.9945 36.116 41.5951 34.8312 41.5951H33.7901C33.5745 41.5959 33.4417 41.4621 33.4417 41.2443ZM34.8469 40.95C35.5952 40.95 35.9883 40.5862 35.9883 39.8514V38.8677C35.9883 38.1333 35.5952 37.7695 34.8469 37.7695H34.2189V40.95H34.8469Z" fill="#191919"/>
<path d="M37.7675 41.3724V37.348C37.7656 37.3183 37.7701 37.2885 37.7805 37.2606C37.7909 37.2328 37.8071 37.2074 37.828 37.1863C37.8488 37.1652 37.8739 37.1489 37.9016 37.1383C37.9292 37.1277 37.9588 37.1231 37.9883 37.1249H38.326C38.3555 37.1232 38.385 37.1278 38.4126 37.1384C38.4402 37.149 38.4652 37.1654 38.4861 37.1865C38.5069 37.2076 38.523 37.2329 38.5334 37.2607C38.5438 37.2886 38.5483 37.3183 38.5464 37.348V41.3724C38.5482 41.4021 38.5438 41.4319 38.5334 41.4597C38.523 41.4876 38.5069 41.5129 38.4861 41.534C38.4652 41.5552 38.4402 41.5716 38.4126 41.5823C38.385 41.5929 38.3555 41.5976 38.326 41.5959H37.9883C37.9588 41.5976 37.9292 41.593 37.9016 41.5824C37.8739 41.5717 37.8488 41.5553 37.828 41.5342C37.8071 41.5131 37.7909 41.4877 37.7805 41.4598C37.7701 41.4319 37.7656 41.4022 37.7675 41.3724V41.3724Z" fill="#191919"/>
<path d="M39.2717 41.3915C39.2752 41.3303 39.2878 41.2699 39.3091 41.2124L40.4758 37.4766C40.5657 37.1937 40.6733 37.106 40.9174 37.106H41.3498C41.5956 37.106 41.7036 37.1953 41.7915 37.4766L42.9558 41.2124C42.9788 41.2695 42.9923 41.33 42.996 41.3915C42.996 41.5127 42.9189 41.596 42.7607 41.596H42.4881C42.3227 41.596 42.26 41.5382 42.2026 41.3535L41.8919 40.3188H40.3465L40.0362 41.3535C39.9787 41.5382 39.9157 41.596 39.7507 41.596H39.503C39.3488 41.596 39.2717 41.5127 39.2717 41.3915ZM41.6999 39.6535L41.1222 37.7183L40.5461 39.6535H41.6999Z" fill="#191919"/>
<path d="M42.9997 28.4215V25.1153V21.6179L40.3434 24.292V29.9279H34.745L32.094 32.5967H42.9997V28.4215Z" fill="#00E04C"/>
<path d="M43 0H40.3441H39.7002H35.943L33.2912 2.66962L28.5118 7.48099L25.856 10.1547L21.0802 14.9624L18.4248 17.6356L13.6491 22.4434L10.9936 25.117L6.21386 29.9284H2.65546V26.7083L4.23652 25.117L6.89198 22.4434L11.6677 17.6356L14.3232 14.9624L19.0989 10.1547L21.7547 7.48099L26.5341 2.66962L29.1859 0H25.4328H18.6757H14.9226L12.2707 2.66962L7.49141 7.48099L4.83555 10.1547L2.65546 12.3494L0.059822 14.9624H0V15.0226V17.6356V18.8009L1.1575 17.6356L2.65546 16.1276L3.81295 14.9624L8.58868 10.1547L11.2445 7.48099L16.0239 2.66962H22.781L18.0016 7.48099L15.3458 10.1547L10.57 14.9624L7.91458 17.6356L3.13885 22.4434L2.65546 22.93L0.483394 25.117L0 25.6033V29.3816V29.9284V32.598H2.65546H3.56202H7.31876L9.97101 29.9284L14.7503 25.117L17.4058 22.4434L22.1815 17.6356L24.8374 14.9624L29.6131 10.1547L32.2686 7.48099L37.0479 2.66962H40.3441V6.15366L39.0256 7.48099L36.3702 10.1547L31.5945 14.9624L28.9386 17.6356L24.1633 22.4434L21.5074 25.117L16.7281 29.9284L14.0762 32.598H17.8294H24.5865H28.3396L30.9914 29.9284L35.7708 25.117L38.4266 22.4434L40.3441 20.513L43 17.8394V17.6356V14.9624V14.0611L42.1047 14.9624L40.3441 16.7347L39.4492 17.6356L34.6735 22.4434L32.0176 25.117L27.2383 29.9284H20.4812L25.2606 25.117L27.9164 22.4434L32.6917 17.6356L35.3476 14.9624L40.1233 10.1547L40.3441 9.93236L42.7788 7.48099L43 7.2587V3.48041V2.66962V0Z" fill="#191919"/>
</svg>
